<svg width="500" height="500" viewBox="0 0 500 500" fill="none" xmlns="http://www.w3.org/2000/svg">
<rect width="500" height="500" rx="140" fill="white"/>
<path d="M167.122 332.878C150.829 316.585 139.734 295.827 135.239 273.228C130.743 250.629 133.05 227.205 141.868 205.917C150.686 184.63 165.618 166.435 184.776 153.634C203.934 140.833 226.458 134 249.5 134C272.541 134 295.066 140.833 314.224 153.634C333.382 166.435 348.314 184.63 357.132 205.917C365.95 227.205 368.257 250.629 363.762 273.228C359.266 295.827 348.171 316.585 331.878 332.878L294.044 295.044C302.854 286.234 308.854 275.009 311.284 262.79C313.715 250.57 312.467 237.904 307.699 226.393C302.931 214.882 294.857 205.044 284.498 198.122C274.138 191.2 261.959 187.505 249.5 187.505C237.041 187.505 224.861 191.2 214.502 198.122C204.143 205.044 196.069 214.882 191.301 226.393C186.533 237.904 185.285 250.57 187.716 262.79C190.147 275.009 196.146 286.234 204.956 295.044L167.122 332.878Z" fill="#3763FE"/>
</svg>
