<svg width="500" height="500" viewBox="0 0 500 500" fill="none" xmlns="http://www.w3.org/2000/svg">
<rect width="500" height="500" rx="140" fill="white"/>
<path d="M331.878 332.878C286.382 378.374 212.618 378.374 167.122 332.878C121.626 287.382 121.626 213.618 167.122 168.122C212.618 122.626 286.382 122.626 331.878 168.122C377.374 213.618 377.374 287.382 331.878 332.878ZM180.182 181.182C141.899 219.465 141.899 281.535 180.182 319.818C218.465 358.101 280.535 358.101 318.818 319.818C357.101 281.535 357.101 219.465 318.818 181.182C280.535 142.899 218.465 142.899 180.182 181.182Z" fill="#3763FE"/>
<rect x="241" y="259" width="54" height="11" fill="#3763FE"/>
<rect x="241" y="266" width="81" height="12" transform="rotate(-90 241 266)" fill="#3763FE"/>
</svg>
