<svg width="500" height="500" viewBox="0 0 500 500" fill="none" xmlns="http://www.w3.org/2000/svg">
<rect width="500" height="500" rx="140" fill="white"/>
<path d="M284.545 314.601C249.628 314.601 221.323 286.295 221.323 251.378C221.323 216.462 249.628 188.156 284.545 188.156C319.462 188.156 347.768 216.462 347.768 251.378C347.768 286.295 319.462 314.601 284.545 314.601ZM284.545 214.02C263.913 214.02 247.187 230.746 247.187 251.378C247.187 272.011 263.913 288.737 284.545 288.737C305.178 288.737 321.904 272.011 321.904 251.378C321.904 230.746 305.178 214.02 284.545 214.02Z" fill="#3763FE"/>
<path d="M297.752 293.77L319.781 279.196L356.99 335.44L334.961 350.013L297.752 293.77Z" fill="#3763FE"/>
<path d="M312 177.907V150H143V350H275.16" stroke="#3763FE" stroke-width="20"/>
</svg>
