<svg width="1866" height="500" viewBox="0 0 1866 500" fill="none" xmlns="http://www.w3.org/2000/svg">
<path d="M255.05 330.05C239.316 345.783 219.271 356.498 197.448 360.838C175.625 365.179 153.005 362.951 132.448 354.436C111.891 345.922 94.3214 331.502 81.9597 313.002C69.5981 294.501 63 272.75 63 250.5C63 228.25 69.598 206.499 81.9596 187.998C94.3213 169.498 111.891 155.078 132.448 146.564C153.005 138.049 175.625 135.821 197.448 140.162C219.27 144.502 239.316 155.217 255.049 170.95L222.506 203.494C213.209 194.197 201.364 187.866 188.469 185.301C175.574 182.736 162.208 184.053 150.061 189.084C137.914 194.116 127.532 202.636 120.227 213.568C112.923 224.5 109.024 237.352 109.024 250.5C109.024 263.648 112.923 276.5 120.227 287.432C127.532 298.364 137.914 306.885 150.061 311.916C162.208 316.947 175.574 318.264 188.469 315.699C201.364 313.134 213.209 306.803 222.506 297.506L255.05 330.05Z" fill="white"/>
<path d="M324.5 363C262.368 363 212 312.632 212 250.5C212 188.368 262.368 138 324.5 138C386.632 138 437 188.368 437 250.5C437 312.632 386.632 363 324.5 363ZM324.5 184.024C287.786 184.024 258.024 213.786 258.024 250.5C258.024 287.214 287.786 316.976 324.5 316.976C361.214 316.976 390.976 287.214 390.976 250.5C390.976 213.786 361.214 184.024 324.5 184.024Z" fill="white"/>
<path d="M488.75 250.5C488.75 233.333 492.583 218 500.25 204.5C508.083 190.833 518.667 180.25 532 172.75C545.5 165.083 560.583 161.25 577.25 161.25C596.75 161.25 613.833 166.25 628.5 176.25C643.167 186.25 653.417 200.083 659.25 217.75H619C615 209.417 609.333 203.167 602 199C594.833 194.833 586.5 192.75 577 192.75C566.833 192.75 557.75 195.167 549.75 200C541.917 204.667 535.75 211.333 531.25 220C526.917 228.667 524.75 238.833 524.75 250.5C524.75 262 526.917 272.167 531.25 281C535.75 289.667 541.917 296.417 549.75 301.25C557.75 305.917 566.833 308.25 577 308.25C586.5 308.25 594.833 306.167 602 302C609.333 297.667 615 291.333 619 283H659.25C653.417 300.833 643.167 314.75 628.5 324.75C614 334.583 596.917 339.5 577.25 339.5C560.583 339.5 545.5 335.75 532 328.25C518.667 320.583 508.083 310 500.25 296.5C492.583 283 488.75 267.667 488.75 250.5ZM750.645 340.25C737.311 340.25 725.311 337.333 714.645 331.5C703.978 325.5 695.561 317.083 689.395 306.25C683.395 295.417 680.395 282.917 680.395 268.75C680.395 254.583 683.478 242.083 689.645 231.25C695.978 220.417 704.561 212.083 715.395 206.25C726.228 200.25 738.311 197.25 751.645 197.25C764.978 197.25 777.061 200.25 787.895 206.25C798.728 212.083 807.228 220.417 813.395 231.25C819.728 242.083 822.895 254.583 822.895 268.75C822.895 282.917 819.645 295.417 813.145 306.25C806.811 317.083 798.145 325.5 787.145 331.5C776.311 337.333 764.145 340.25 750.645 340.25ZM750.645 309.75C756.978 309.75 762.895 308.25 768.395 305.25C774.061 302.083 778.561 297.417 781.895 291.25C785.228 285.083 786.895 277.583 786.895 268.75C786.895 255.583 783.395 245.5 776.395 238.5C769.561 231.333 761.145 227.75 751.145 227.75C741.145 227.75 732.728 231.333 725.895 238.5C719.228 245.5 715.895 255.583 715.895 268.75C715.895 281.917 719.145 292.083 725.645 299.25C732.311 306.25 740.645 309.75 750.645 309.75ZM866.318 183C860.152 183 854.985 181.083 850.818 177.25C846.818 173.25 844.818 168.333 844.818 162.5C844.818 156.667 846.818 151.833 850.818 148C854.985 144 860.152 142 866.318 142C872.485 142 877.568 144 881.568 148C885.735 151.833 887.818 156.667 887.818 162.5C887.818 168.333 885.735 173.25 881.568 177.25C877.568 181.083 872.485 183 866.318 183ZM883.568 199.5V338H848.568V199.5H883.568ZM994.898 197.5C1011.4 197.5 1024.73 202.75 1034.9 213.25C1045.07 223.583 1050.15 238.083 1050.15 256.75V338H1015.15V261.5C1015.15 250.5 1012.4 242.083 1006.9 236.25C1001.4 230.25 993.898 227.25 984.398 227.25C974.732 227.25 967.065 230.25 961.398 236.25C955.898 242.083 953.148 250.5 953.148 261.5V338H918.148V199.5H953.148V216.75C957.815 210.75 963.732 206.083 970.898 202.75C978.232 199.25 986.232 197.5 994.898 197.5ZM1136.43 340.25C1125.1 340.25 1114.93 338.25 1105.93 334.25C1096.93 330.083 1089.76 324.5 1084.43 317.5C1079.26 310.5 1076.43 302.75 1075.93 294.25H1111.18C1111.85 299.583 1114.43 304 1118.93 307.5C1123.6 311 1129.35 312.75 1136.18 312.75C1142.85 312.75 1148.01 311.417 1151.68 308.75C1155.51 306.083 1157.43 302.667 1157.43 298.5C1157.43 294 1155.1 290.667 1150.43 288.5C1145.93 286.167 1138.68 283.667 1128.68 281C1118.35 278.5 1109.85 275.917 1103.18 273.25C1096.68 270.583 1091.01 266.5 1086.18 261C1081.51 255.5 1079.18 248.083 1079.18 238.75C1079.18 231.083 1081.35 224.083 1085.68 217.75C1090.18 211.417 1096.51 206.417 1104.68 202.75C1113.01 199.083 1122.76 197.25 1133.93 197.25C1150.43 197.25 1163.6 201.417 1173.43 209.75C1183.26 217.917 1188.68 229 1189.68 243H1156.18C1155.68 237.5 1153.35 233.167 1149.18 230C1145.18 226.667 1139.76 225 1132.93 225C1126.6 225 1121.68 226.167 1118.18 228.5C1114.85 230.833 1113.18 234.083 1113.18 238.25C1113.18 242.917 1115.51 246.5 1120.18 249C1124.85 251.333 1132.1 253.75 1141.93 256.25C1151.93 258.75 1160.18 261.333 1166.68 264C1173.18 266.667 1178.76 270.833 1183.43 276.5C1188.26 282 1190.76 289.333 1190.93 298.5C1190.93 306.5 1188.68 313.667 1184.18 320C1179.85 326.333 1173.51 331.333 1165.18 335C1157.01 338.5 1147.43 340.25 1136.43 340.25ZM1254.66 219.5C1259.16 213.167 1265.33 207.917 1273.16 203.75C1281.16 199.417 1290.25 197.25 1300.41 197.25C1312.25 197.25 1322.91 200.167 1332.41 206C1342.08 211.833 1349.66 220.167 1355.16 231C1360.83 241.667 1363.66 254.083 1363.66 268.25C1363.66 282.417 1360.83 295 1355.16 306C1349.66 316.833 1342.08 325.25 1332.41 331.25C1322.91 337.25 1312.25 340.25 1300.41 340.25C1290.25 340.25 1281.25 338.167 1273.41 334C1265.75 329.833 1259.5 324.583 1254.66 318.25V404H1219.66V199.5H1254.66V219.5ZM1327.91 268.25C1327.91 259.917 1326.16 252.75 1322.66 246.75C1319.33 240.583 1314.83 235.917 1309.16 232.75C1303.66 229.583 1297.66 228 1291.16 228C1284.83 228 1278.83 229.667 1273.16 233C1267.66 236.167 1263.16 240.833 1259.66 247C1256.33 253.167 1254.66 260.417 1254.66 268.75C1254.66 277.083 1256.33 284.333 1259.66 290.5C1263.16 296.667 1267.66 301.417 1273.16 304.75C1278.83 307.917 1284.83 309.5 1291.16 309.5C1297.66 309.5 1303.66 307.833 1309.16 304.5C1314.83 301.167 1319.33 296.417 1322.66 290.25C1326.16 284.083 1327.91 276.75 1327.91 268.25ZM1424.1 153V338H1389.1V153H1424.1ZM1449.68 268.25C1449.68 254.25 1452.43 241.833 1457.93 231C1463.59 220.167 1471.18 211.833 1480.68 206C1490.34 200.167 1501.09 197.25 1512.93 197.25C1523.26 197.25 1532.26 199.333 1539.93 203.5C1547.76 207.667 1554.01 212.917 1558.68 219.25V199.5H1593.93V338H1558.68V317.75C1554.18 324.25 1547.93 329.667 1539.93 334C1532.09 338.167 1523.01 340.25 1512.68 340.25C1501.01 340.25 1490.34 337.25 1480.68 331.25C1471.18 325.25 1463.59 316.833 1457.93 306C1452.43 295 1449.68 282.417 1449.68 268.25ZM1558.68 268.75C1558.68 260.25 1557.01 253 1553.68 247C1550.34 240.833 1545.84 236.167 1540.18 233C1534.51 229.667 1528.43 228 1521.93 228C1515.43 228 1509.43 229.583 1503.93 232.75C1498.43 235.917 1493.93 240.583 1490.43 246.75C1487.09 252.75 1485.43 259.917 1485.43 268.25C1485.43 276.583 1487.09 283.917 1490.43 290.25C1493.93 296.417 1498.43 301.167 1503.93 304.5C1509.59 307.833 1515.59 309.5 1521.93 309.5C1528.43 309.5 1534.51 307.917 1540.18 304.75C1545.84 301.417 1550.34 296.75 1553.68 290.75C1557.01 284.583 1558.68 277.25 1558.68 268.75ZM1704.86 197.5C1721.36 197.5 1734.69 202.75 1744.86 213.25C1755.03 223.583 1760.11 238.083 1760.11 256.75V338H1725.11V261.5C1725.11 250.5 1722.36 242.083 1716.86 236.25C1711.36 230.25 1703.86 227.25 1694.36 227.25C1684.69 227.25 1677.03 230.25 1671.36 236.25C1665.86 242.083 1663.11 250.5 1663.11 261.5V338H1628.11V199.5H1663.11V216.75C1667.78 210.75 1673.69 206.083 1680.86 202.75C1688.19 199.25 1696.19 197.5 1704.86 197.5Z" fill="white"/>
</svg>
