<svg width="500" height="500" viewBox="0 0 500 500" fill="none" xmlns="http://www.w3.org/2000/svg">
<path d="M255.05 330.05C239.316 345.783 219.271 356.498 197.448 360.838C175.625 365.179 153.005 362.951 132.448 354.436C111.891 345.922 94.3214 331.502 81.9597 313.002C69.5981 294.501 63 272.75 63 250.5C63 228.25 69.598 206.499 81.9596 187.998C94.3213 169.498 111.891 155.078 132.448 146.564C153.005 138.049 175.625 135.821 197.448 140.162C219.27 144.502 239.316 155.217 255.049 170.95L222.506 203.494C213.209 194.197 201.364 187.866 188.469 185.301C175.574 182.736 162.208 184.053 150.061 189.084C137.914 194.116 127.532 202.636 120.227 213.568C112.923 224.5 109.024 237.352 109.024 250.5C109.024 263.648 112.923 276.5 120.227 287.432C127.532 298.364 137.914 306.885 150.061 311.916C162.208 316.947 175.574 318.264 188.469 315.699C201.364 313.134 213.209 306.803 222.506 297.506L255.05 330.05Z" fill="#3763FE"/>
<path d="M324.5 363C262.368 363 212 312.632 212 250.5C212 188.368 262.368 138 324.5 138C386.632 138 437 188.368 437 250.5C437 312.632 386.632 363 324.5 363ZM324.5 184.024C287.786 184.024 258.024 213.786 258.024 250.5C258.024 287.214 287.786 316.976 324.5 316.976C361.214 316.976 390.976 287.214 390.976 250.5C390.976 213.786 361.214 184.024 324.5 184.024Z" fill="#3763FE"/>
</svg>
